<?xml version="1.0" standalone="no"?>
<!DOCTYPE svg PUBLIC "-//W3C//DTD SVG 20010904//EN"
 "http://www.w3.org/TR/2001/REC-SVG-20010904/DTD/svg10.dtd">
<svg version="1.0" xmlns="http://www.w3.org/2000/svg"
 width="669.000000pt" height="438.000000pt" viewBox="0 0 669.000000 438.000000"
 preserveAspectRatio="xMidYMid meet">

<g transform="translate(0.000000,438.000000) scale(0.100000,-0.100000)"
fill="#000000" stroke="none">
<path d="M810 3708 c0 -255 -1 -1193 -3 -2086 l-2 -1622 528 0 527 0 0 2085 0
2085 -525 0 -525 0 0 -462z m125 432 c3 -5 1 -10 -4 -10 -6 0 -11 5 -11 10 0
6 2 10 4 10 3 0 8 -4 11 -10z m562 -6 c-3 -3 -12 -4 -19 -1 -8 3 -5 6 6 6 11
1 17 -2 13 -5z m203 -89 c10 -12 6 -16 -22 -24 -18 -5 -25 -10 -16 -10 12 -1
16 -8 14 -26 -1 -14 -6 -28 -10 -33 -13 -13 -33 27 -28 56 9 50 37 67 62 37z
m-797 -22 c-7 -2 -21 -2 -30 0 -10 3 -4 5 12 5 17 0 24 -2 18 -5z m769 -105
c10 -14 20 -19 32 -15 9 4 14 11 11 17 -11 17 68 -39 80 -58 11 -17 29 -73 39
-122 6 -30 -16 -112 -30 -110 -27 5 -34 16 -25 47 11 36 4 76 -11 67 -5 -4 -7
-21 -4 -39 6 -32 6 -33 -41 -40 -27 -4 -73 -9 -103 -11 -30 -2 -54 -7 -53 -11
1 -4 4 -15 7 -23 3 -8 2 -22 -3 -30 -15 -22 -46 12 -66 72 -14 43 -14 59 -4
102 20 86 45 124 97 150 59 30 57 30 74 4z m-575 -94 c-3 -3 -12 -4 -19 -1 -8
3 -5 6 6 6 11 1 17 -2 13 -5z m91 -1 c-10 -2 -28 -2 -40 0 -13 2 -5 4 17 4 22
1 32 -1 23 -4z m-191 -69 c2 -6 -3 -11 -10 -11 -8 0 -14 6 -14 14 0 15 19 12
24 -3z m181 -12 c2 -7 -3 -12 -12 -12 -9 0 -16 7 -16 16 0 17 22 14 28 -4z
m92 -3 c0 -5 -7 -9 -15 -9 -8 0 -15 7 -15 15 0 9 6 12 15 9 8 -4 15 -10 15
-15z m193 -306 c-7 -2 -21 -2 -30 0 -10 3 -4 5 12 5 17 0 24 -2 18 -5z m106 3
c-10 -10 -59 -14 -59 -5 0 5 14 9 32 9 17 0 29 -2 27 -4z m-524 -76 c3 -5 -3
-10 -14 -10 -30 0 -34 -17 -9 -34 22 -15 22 -16 2 -16 -32 0 -43 17 -30 46 11
24 40 32 51 14z m-5 -30 c0 -5 -5 -10 -11 -10 -5 0 -7 5 -4 10 3 6 8 10 11 10
2 0 4 -4 4 -10z m12 -75 c3 -11 6 -45 7 -75 1 -30 8 -67 15 -82 15 -28 15 -28
-17 -24 -29 3 -32 7 -38 47 l-6 44 -1 -42 c-1 -24 -5 -43 -9 -44 -5 0 -18 -2
-30 -5 -21 -3 -21 -2 -8 34 8 20 17 67 20 105 6 66 7 67 33 65 17 -2 30 -11
34 -23z m66 -210 c-3 -3 -9 2 -12 12 -6 14 -5 15 5 6 7 -7 10 -15 7 -18z
m-178 5 c0 -5 -4 -10 -10 -10 -5 0 -10 5 -10 10 0 6 5 10 10 10 6 0 10 -4 10
-10z m-7 -187 c-7 -2 -21 -2 -30 0 -10 3 -4 5 12 5 17 0 24 -2 18 -5z m104 1
c-3 -3 -12 -4 -19 -1 -8 3 -5 6 6 6 11 1 17 -2 13 -5z m193 -124 c0 -6 -68
-10 -185 -10 -117 0 -185 4 -185 10 0 6 68 10 185 10 117 0 185 -4 185 -10z
m560 0 c0 -6 -73 -10 -200 -10 -127 0 -200 4 -200 10 0 6 73 10 200 10 127 0
200 -4 200 -10z m-605 -130 c4 -7 -52 -10 -159 -10 -104 0 -166 4 -166 10 0 6
60 10 159 10 96 0 162 -4 166 -10z m555 0 c0 -6 -65 -10 -176 -10 -114 0 -173
3 -169 10 4 6 73 10 176 10 106 0 169 -4 169 -10z m-744 -215 c-3 -8 0 -16 7
-19 7 -2 -4 -4 -23 -4 -19 0 -27 2 -17 5 9 2 15 9 12 14 -4 5 -1 9 5 9 6 0 8
5 4 12 -5 7 -3 8 5 4 7 -5 10 -14 7 -21z m689 -14 c-10 -33 -66 -21 -65 14 0
5 5 3 10 -7 14 -24 53 -12 46 15 -3 14 -2 17 6 9 5 -5 7 -19 3 -31z m-327 2
c3 -17 -2 -23 -16 -23 -24 0 -46 25 -37 40 12 19 50 7 53 -17z m282 -293 c0
-5 -8 -10 -17 -10 -15 0 -16 2 -3 10 19 12 20 12 20 0z m-690 -184 c0 -3 -4
-8 -10 -11 -5 -3 -10 -1 -10 4 0 6 5 11 10 11 6 0 10 -2 10 -4z m347 -2 c-3
-3 -12 -4 -19 -1 -8 3 -5 6 6 6 11 1 17 -2 13 -5z m40 0 c-3 -3 -12 -4 -19 -1
-8 3 -5 6 6 6 11 1 17 -2 13 -5z m266 -1 c-7 -2 -19 -2 -25 0 -7 3 -2 5 12 5
14 0 19 -2 13 -5z m84 -279 c-3 -3 -12 -4 -19 -1 -8 3 -5 6 6 6 11 1 17 -2 13
-5z m-712 -324 c17 -7 14 -9 -13 -9 -20 -1 -31 3 -27 9 7 12 13 12 40 0z m90
0 c-3 -5 -10 -10 -16 -10 -5 0 -9 5 -9 10 0 6 7 10 16 10 8 0 12 -4 9 -10z
m-125 -404 c0 -3 -4 -8 -10 -11 -5 -3 -10 -1 -10 4 0 6 5 11 10 11 6 0 10 -2
10 -4z m73 -163 c-23 -2 -64 -2 -90 0 -26 2 -7 3 42 3 50 0 71 -1 48 -3z m330
0 c-24 -2 -62 -2 -85 0 -24 2 -5 4 42 4 47 0 66 -2 43 -4z m340 0 c-23 -2 -64
-2 -90 0 -26 2 -7 3 42 3 50 0 71 -1 48 -3z m-750 -120 c-7 -2 -19 -2 -25 0
-7 3 -2 5 12 5 14 0 19 -2 13 -5z m694 -9 c-3 -3 -12 -4 -19 -1 -8 3 -5 6 6 6
11 1 17 -2 13 -5z m-604 -221 c-24 -2 -62 -2 -85 0 -24 2 -5 4 42 4 47 0 66
-2 43 -4z m330 0 c-24 -2 -62 -2 -85 0 -24 2 -5 4 42 4 47 0 66 -2 43 -4z
m-403 -123 c0 -5 -5 -10 -11 -10 -5 0 -7 5 -4 10 3 6 8 10 11 10 2 0 4 -4 4
-10z m55 -223 c28 -2 13 -4 -35 -4 -47 0 -73 2 -57 4 15 2 27 10 27 16 0 9 2
9 8 0 4 -6 30 -13 57 -16z m340 0 c28 -2 13 -4 -35 -4 -47 0 -73 2 -57 4 15 2
27 10 27 16 0 9 2 9 8 0 4 -6 30 -13 57 -16z m348 -4 c-24 -2 -62 -2 -85 0
-24 2 -5 4 42 4 47 0 66 -2 43 -4z"/>
<path d="M1550 3711 c0 -11 5 -23 10 -26 6 -3 10 3 10 14 0 11 -4 23 -10 26
-5 3 -10 -3 -10 -14z"/>
<path d="M1021 3244 c0 -11 3 -14 6 -6 3 7 2 16 -1 19 -3 4 -6 -2 -5 -13z"/>
<path d="M1315 2390 c-3 -5 1 -10 9 -10 9 0 16 5 16 10 0 6 -4 10 -9 10 -6 0
-13 -4 -16 -10z"/>
<path d="M2280 2085 l0 -2085 528 0 527 0 -2 1722 c-1 948 -2 1886 -3 2086 l0
362 -525 0 -525 0 0 -2085z m847 2049 c-3 -3 -12 -4 -19 -1 -8 3 -5 6 6 6 11
1 17 -2 13 -5z m43 -89 c10 -12 7 -15 -15 -21 -30 -7 -40 -1 -32 21 8 19 31
19 47 0z m-23 -50 c-4 -8 -1 -17 5 -21 7 -4 4 -10 -7 -17 -12 -7 -20 -5 -26 4
-16 25 -10 49 12 49 14 0 19 -5 16 -15z m-5 -75 c15 -24 48 -27 48 -4 0 12 7
10 31 -10 17 -14 34 -26 39 -26 29 0 66 -199 40 -215 -5 -3 -7 -12 -4 -19 7
-19 -14 -30 -31 -16 -10 8 -12 26 -8 66 4 39 2 54 -6 54 -8 0 -11 -13 -9 -37
l3 -38 -59 -12 c-33 -6 -79 -10 -102 -9 -41 2 -43 1 -38 -21 4 -13 4 -30 0
-38 -10 -28 -44 6 -62 62 -18 57 -15 94 17 177 16 43 27 55 66 77 60 33 60 33
75 9z m-672 -161 c0 -5 -4 -7 -10 -4 -5 3 -10 1 -10 -6 0 -7 -3 -10 -6 -6 -8
7 4 27 17 27 5 0 9 -5 9 -11z m177 -14 c0 -8 -6 -15 -14 -15 -7 0 -13 7 -13
15 0 8 6 15 13 15 8 0 14 -7 14 -15z m103 -6 c0 -5 -7 -9 -15 -9 -8 0 -15 7
-15 15 0 9 6 12 15 9 8 -4 15 -10 15 -15z m370 -189 c0 -5 -4 -10 -10 -10 -5
0 -10 5 -10 10 0 6 5 10 10 10 6 0 10 -4 10 -10z m-150 -110 c0 -5 -5 -10 -11
-10 -5 0 -7 5 -4 10 3 6 8 10 11 10 2 0 4 -4 4 -10z m-63 -6 c-3 -3 -12 -4
-19 -1 -8 3 -5 6 6 6 11 1 17 -2 13 -5z m-401 -79 c-25 -19 -37 -19 -30 0 4 8
16 15 28 15 21 -1 21 -1 2 -15z m1 -42 c0 -14 -8 -16 -31 -7 -9 3 -14 10 -11
14 8 13 42 7 42 -7z m26 -114 c3 -41 11 -87 16 -101 9 -25 8 -26 -17 -23 -15
2 -30 4 -33 4 -4 1 -5 22 -3 49 l3 47 -9 -44 c-11 -50 -13 -54 -41 -58 -17 -3
-20 0 -14 14 4 10 15 57 23 104 14 84 15 86 42 85 27 -1 28 -3 33 -77z m-113
-143 c0 -11 -19 -15 -25 -6 -3 5 1 10 9 10 9 0 16 -2 16 -4z m-36 -184 c3 -5
-1 -9 -9 -9 -8 0 -12 4 -9 9 3 4 7 8 9 8 2 0 6 -4 9 -8z m206 -2 c0 -5 -7 -10
-16 -10 -8 0 -12 5 -9 10 3 6 10 10 16 10 5 0 9 -4 9 -10z m-87 -7 c-7 -2 -19
-2 -25 0 -7 3 -2 5 12 5 14 0 19 -2 13 -5z m207 -123 c0 -6 -70 -10 -190 -10
-120 0 -190 4 -190 10 0 6 70 10 190 10 120 0 190 -4 190 -10z m560 0 c0 -6
-73 -10 -200 -10 -127 0 -200 4 -200 10 0 6 73 10 200 10 127 0 200 -4 200
-10z m-610 -130 c0 -6 -62 -10 -165 -10 -103 0 -165 4 -165 10 0 6 62 10 165
10 103 0 165 -4 165 -10z m560 0 c0 -6 -65 -10 -175 -10 -110 0 -175 4 -175
10 0 6 65 10 175 10 110 0 175 -4 175 -10z m-107 -210 c-3 -12 -8 -19 -11 -16
-5 6 5 36 12 36 2 0 2 -9 -1 -20z m-643 0 c0 -5 -5 -10 -11 -10 -5 0 -7 5 -4
10 3 6 8 10 11 10 2 0 4 -4 4 -10z m363 -16 c4 -22 1 -25 -22 -22 -37 4 -44
48 -8 48 19 0 26 -6 30 -26z m-343 -9 c0 -2 -13 -5 -30 -7 -19 -3 -30 0 -30 7
0 7 11 10 30 7 17 -2 30 -5 30 -7z m664 -7 c-3 -4 -12 -8 -20 -8 -8 0 -13 4
-10 8 3 5 12 9 20 9 8 0 13 -4 10 -9z m-657 -464 c-3 -3 -12 -4 -19 -1 -8 3
-5 6 6 6 11 1 17 -2 13 -5z m263 2 c0 -3 -4 -8 -10 -11 -5 -3 -10 -1 -10 4 0
6 5 11 10 11 6 0 10 -2 10 -4z m387 -2 c-3 -3 -12 -4 -19 -1 -8 3 -5 6 6 6 11
1 17 -2 13 -5z m-597 -75 c0 -6 -4 -7 -10 -4 -5 3 -10 11 -10 16 0 6 5 7 10 4
6 -3 10 -11 10 -16z m600 -205 c0 -2 -7 -4 -15 -4 -8 0 -15 4 -15 10 0 5 7 7
15 4 8 -4 15 -8 15 -10z m-600 -64 c0 -5 -2 -10 -4 -10 -3 0 -8 5 -11 10 -3 6
-1 10 4 10 6 0 11 -4 11 -10z m-10 -260 c0 -5 -4 -10 -10 -10 -5 0 -10 5 -10
10 0 6 5 10 10 10 6 0 10 -4 10 -10z m-113 -546 c-3 -3 -12 -4 -19 -1 -8 3 -5
6 6 6 11 1 17 -2 13 -5z m356 -1 c-7 -2 -19 -2 -25 0 -7 3 -2 5 12 5 14 0 19
-2 13 -5z m364 1 c-3 -3 -12 -4 -19 -1 -8 3 -5 6 6 6 11 1 17 -2 13 -5z m-710
-350 c-3 -3 -12 -4 -19 -1 -8 3 -5 6 6 6 11 1 17 -2 13 -5z m680 -150 c-3 -3
-12 -4 -19 -1 -8 3 -5 6 6 6 11 1 17 -2 13 -5z m-669 -201 c-10 -2 -26 -2 -35
0 -10 3 -2 5 17 5 19 0 27 -2 18 -5z m659 1 c-3 -3 -12 -4 -19 -1 -8 3 -5 6 6
6 11 1 17 -2 13 -5z"/>
<path d="M3032 3700 c0 -19 2 -27 5 -17 2 9 2 25 0 35 -3 9 -5 1 -5 -18z"/>
<path d="M2496 3251 c-4 -7 -5 -15 -2 -18 9 -9 19 4 14 18 -4 11 -6 11 -12 0z"/>
<path d="M2790 2392 c0 -5 7 -9 15 -9 8 0 12 4 9 9 -3 4 -9 8 -15 8 -5 0 -9
-4 -9 -8z"/>
<path d="M3760 2085 l0 -2085 465 0 465 0 2 1808 c2 994 2 1932 0 2085 l-3
277 -464 0 -465 0 0 -2085z m795 1965 c3 -5 -6 -12 -20 -16 -29 -7 -41 -1 -30
15 8 14 42 14 50 1z m-20 -55 c0 -32 -29 -30 -33 3 -3 16 2 22 15 22 13 0 18
-8 18 -25z m19 -75 c9 0 16 4 16 10 0 5 15 0 34 -11 50 -29 85 -139 65 -202
-6 -17 -13 -38 -15 -45 -3 -11 -7 -11 -18 1 -10 9 -12 28 -9 60 4 34 2 47 -7
47 -9 0 -11 -10 -7 -34 l5 -34 -51 -8 c-29 -4 -71 -7 -94 -6 -38 0 -42 -2 -33
-18 10 -19 4 -50 -10 -50 -14 0 -37 35 -50 78 -11 36 -11 52 0 95 19 77 35
103 82 130 42 24 43 24 60 6 9 -11 23 -19 32 -19z m-624 -129 c0 -12 -20 -25
-27 -18 -7 7 6 27 18 27 5 0 9 -4 9 -9z m158 -12 c-2 -6 -8 -10 -13 -10 -5 0
-11 4 -13 10 -2 6 4 11 13 11 9 0 15 -5 13 -11z m86 2 c3 -5 -1 -11 -9 -15 -9
-3 -15 0 -15 9 0 16 16 20 24 6z m163 -267 c-3 -3 -12 -4 -19 -1 -8 3 -5 6 6
6 11 1 17 -2 13 -5z m122 2 c-10 -10 -59 -14 -64 -5 -4 5 11 9 31 9 21 0 35
-2 33 -4z m-513 -71 c-21 -16 -32 -13 -21 4 3 6 14 11 23 11 15 -1 15 -2 -2
-15z m-2 -40 c3 -8 2 -15 -3 -15 -5 0 -14 7 -21 15 -10 12 -10 15 3 15 8 0 17
-7 21 -15z m27 -75 c2 -67 6 -97 19 -120 10 -19 9 -21 -17 -17 -24 3 -29 9
-34 43 l-5 39 -5 -39 c-3 -32 -8 -40 -28 -43 -19 -3 -22 0 -16 14 4 10 11 41
16 68 11 65 17 100 18 100 1 0 12 0 26 0 23 0 25 -4 26 -45z m-101 -160 c0 -5
-2 -10 -4 -10 -3 0 -8 5 -11 10 -3 6 -1 10 4 10 6 0 11 -4 11 -10z m-26 -161
c3 -3 -4 -5 -14 -6 -11 -1 -22 2 -24 6 -5 8 30 8 38 0z m206 1 c0 -5 -8 -10
-17 -10 -15 0 -16 2 -3 10 19 12 20 12 20 0z m-137 -7 c-7 -2 -19 -2 -25 0 -7
3 -2 5 12 5 14 0 19 -2 13 -5z m50 0 c-7 -2 -19 -2 -25 0 -7 3 -2 5 12 5 14 0
19 -2 13 -5z m85 -110 c-49 -2 -127 -2 -175 0 -49 1 -9 3 87 3 96 0 136 -2 88
-3z m495 0 c-51 -2 -135 -2 -185 0 -51 1 -10 3 92 3 102 0 143 -2 93 -3z
m-458 -113 c4 -6 -47 -10 -145 -10 -98 0 -149 4 -145 10 4 6 63 10 145 10 82
0 141 -4 145 -10z m500 0 c4 -7 -50 -10 -155 -10 -105 0 -159 3 -155 10 4 6
67 10 155 10 88 0 151 -4 155 -10z m-665 -180 c0 -5 -2 -10 -4 -10 -3 0 -8 5
-11 10 -3 6 -1 10 4 10 6 0 11 -4 11 -10z m573 -5 c-3 -9 -8 -14 -10 -11 -3 3
-2 9 2 15 9 16 15 13 8 -4z m45 -16 c-3 -8 -7 -3 -11 10 -4 17 -3 21 5 13 5
-5 8 -16 6 -23z m-298 17 c0 -2 3 -11 6 -20 5 -12 0 -16 -22 -15 -18 1 -22 3
-11 6 9 2 15 8 12 13 -3 5 -12 7 -20 3 -8 -3 -15 0 -15 6 0 6 11 11 25 11 14
0 25 -2 25 -4z m218 -353 c-10 -2 -26 -2 -35 0 -10 3 -2 5 17 5 19 0 27 -2 18
-5z m79 1 c-3 -3 -12 -4 -19 -1 -8 3 -5 6 6 6 11 1 17 -2 13 -5z m-589 -161
c-10 -2 -26 -2 -35 0 -10 3 -2 5 17 5 19 0 27 -2 18 -5z m300 0 c-10 -2 -26
-2 -35 0 -10 3 -2 5 17 5 19 0 27 -2 18 -5z m290 0 c-10 -2 -26 -2 -35 0 -10
3 -2 5 17 5 19 0 27 -2 18 -5z m-590 -240 c-10 -2 -26 -2 -35 0 -10 3 -2 5 17
5 19 0 27 -2 18 -5z m295 0 c-7 -2 -21 -2 -30 0 -10 3 -4 5 12 5 17 0 24 -2
18 -5z m295 0 c-10 -2 -26 -2 -35 0 -10 3 -2 5 17 5 19 0 27 -2 18 -5z m-548
-283 c0 -5 -5 -10 -11 -10 -5 0 -7 5 -4 10 3 6 8 10 11 10 2 0 4 -4 4 -10z
m37 -266 c-3 -3 -12 -4 -19 -1 -8 3 -5 6 6 6 11 1 17 -2 13 -5z m193 -608 c0
-3 -4 -8 -10 -11 -5 -3 -10 -1 -10 4 0 6 5 11 10 11 6 0 10 -2 10 -4z m-247
-123 c-7 -2 -19 -2 -25 0 -7 3 -2 5 12 5 14 0 19 -2 13 -5z"/>
<path d="M4420 3746 c0 -8 5 -18 10 -21 6 -3 10 3 10 14 0 12 -4 21 -10 21 -5
0 -10 -6 -10 -14z"/>
<path d="M5120 2085 l0 -2085 155 0 155 0 0 488 c1 3795 2 3480 -10 3462 -7
-10 -10 -11 -10 -2 0 14 -51 6 -61 -11 -12 -18 -29 4 -29 37 0 43 28 69 65 60
14 -4 30 -16 35 -28 6 -14 9 10 9 72 l1 92 -155 0 -155 0 0 -2085z m260 1980
c0 -8 -4 -15 -10 -15 -5 0 -7 7 -4 15 4 8 8 15 10 15 2 0 4 -7 4 -15z m-92
-348 c2 -19 -1 -27 -12 -27 -11 0 -16 10 -16 31 0 38 24 35 28 -4z m35 -634
c-29 -2 -77 -2 -105 0 -29 2 -6 3 52 3 58 0 81 -1 53 -3z m0 -80 c-29 -2 -77
-2 -105 0 -29 2 -6 3 52 3 58 0 81 -1 53 -3z m0 -80 c-29 -2 -77 -2 -105 0
-29 2 -6 3 52 3 58 0 81 -1 53 -3z m0 -90 c-29 -2 -77 -2 -105 0 -29 2 -6 3
52 3 58 0 81 -1 53 -3z m-30 -240 c-7 -2 -21 -2 -30 0 -10 3 -4 5 12 5 17 0
24 -2 18 -5z m44 -369 c-3 -3 -12 -4 -19 -1 -8 3 -5 6 6 6 11 1 17 -2 13 -5z
m-44 -1411 c-7 -2 -21 -2 -30 0 -10 3 -4 5 12 5 17 0 24 -2 18 -5z m-99 -133
c7 -32 5 -70 -4 -70 -6 0 -11 12 -11 28 -1 16 -3 20 -6 10 -2 -10 -9 -18 -14
-18 -5 0 -10 -8 -10 -17 -1 -10 -5 0 -8 22 -4 22 -5 45 -4 50 5 16 53 12 57
-5z m210 14 c19 -7 23 -78 4 -72 -6 2 -12 12 -14 22 -4 29 -14 31 -14 3 0 -37
-18 -34 -29 6 l-9 32 -7 -32 c-5 -23 -13 -33 -26 -33 -15 0 -19 7 -19 34 0 19
6 37 13 39 18 8 83 8 101 1z m-130 -12 c3 -5 2 -26 -1 -48 l-6 -39 -13 30
c-11 26 -13 27 -14 8 0 -41 -20 -24 -20 17 0 36 3 40 24 40 14 0 27 -4 30 -8z
m146 -98 c0 -8 -5 -12 -10 -9 -14 8 -52 -4 -45 -15 3 -4 16 -7 30 -5 19 2 25
-2 25 -16 0 -16 -8 -19 -44 -19 -26 0 -46 -5 -49 -12 -3 -7 -5 11 -5 40 l1 52
48 0 c38 0 49 -4 49 -16z m-124 -36 c0 -24 -5 -42 -11 -40 -5 2 -9 14 -7 27 2
14 -1 25 -6 25 -6 0 -12 7 -16 15 -4 11 1 15 18 15 22 0 24 -4 22 -42z m-116
18 c14 0 33 5 43 9 14 6 17 2 17 -22 0 -28 -2 -30 -50 -32 -27 -1 -50 2 -51 6
0 4 -2 19 -5 32 -3 18 -1 21 8 14 7 -5 24 -8 38 -7z m77 -38 c-3 -8 -6 -5 -6
6 -1 11 2 17 5 13 3 -3 4 -12 1 -19z m-69 -69 c20 -1 29 -3 20 -6 -25 -6 -22
-21 5 -26 12 -2 -2 -5 -30 -6 -32 0 -53 3 -53 10 0 5 5 7 10 4 6 -4 19 -4 28
0 14 7 13 9 -8 14 -14 4 -26 15 -28 26 -3 18 -2 19 8 3 7 -12 25 -18 48 -19z
m97 -3 c-8 -18 -11 -37 -7 -41 4 -4 0 -6 -8 -3 -8 2 -16 19 -18 37 -2 22 0 31
7 26 6 -3 11 -1 11 4 0 6 7 11 14 11 13 0 13 -4 1 -34z m55 24 c0 -6 15 -8 40
-4 33 5 40 4 40 -10 0 -20 -57 -22 -82 -2 -20 15 -23 26 -8 26 6 0 10 -5 10
-10z m73 -51 c-6 -6 -28 -13 -49 -15 l-39 -4 35 14 c44 18 68 20 53 5z m-133
-85 c0 -54 -21 -57 -31 -3 -4 22 -7 26 -8 12 0 -13 -6 -23 -12 -23 -6 0 -9 -7
-5 -15 3 -8 1 -15 -4 -15 -6 0 -10 14 -10 30 0 17 -4 30 -10 30 -5 0 -10 -6
-10 -13 0 -11 -39 -37 -55 -37 -3 0 -5 18 -5 40 l0 40 75 0 75 0 0 -46z m140
27 c0 -11 -9 -23 -20 -26 -11 -3 -20 -10 -20 -15 0 -4 9 -6 20 -3 14 4 20 0
20 -11 0 -13 -12 -16 -65 -16 l-65 0 0 29 c0 55 7 61 71 61 52 0 59 -2 59 -19z
m-137 -128 c-7 -2 -19 -2 -25 0 -7 3 -2 5 12 5 14 0 19 -2 13 -5z m95 -118 c1
-19 -3 -35 -8 -35 -6 0 -10 18 -10 41 0 49 16 44 18 -6z"/>
<path d="M5319 367 c5 -5 19 -7 32 -5 20 3 19 5 -9 9 -20 3 -29 2 -23 -4z"/>
<path d="M5325 339 c-4 -6 -4 -13 0 -17 3 -3 10 0 15 8 7 11 10 12 10 2 0 -7
5 -10 10 -7 6 4 8 11 5 16 -8 12 -32 11 -40 -2z"/>
</g>
</svg>
